<svg width="150" height="24" viewBox="0 0 150 24" fill="none" xmlns="http://www.w3.org/2000/svg">
<path d="M141.618 23.256C140.424 23.256 139.378 23.0747 138.482 22.712C137.608 22.328 136.904 21.7947 136.37 21.112C135.858 20.4293 135.549 19.6187 135.443 18.68H138.322C138.45 19.2987 138.792 19.7893 139.346 20.152C139.922 20.5147 140.68 20.696 141.618 20.696H142.962C144.093 20.696 144.936 20.472 145.49 20.024C146.045 19.5547 146.322 18.936 146.322 18.168C146.322 17.4213 146.067 16.8347 145.555 16.408C145.064 15.96 144.328 15.6613 143.346 15.512L140.979 15.128C139.251 14.8293 137.96 14.296 137.107 13.528C136.275 12.7387 135.859 11.5973 135.859 10.104C135.859 8.52535 136.36 7.30935 137.363 6.45601C138.365 5.58135 139.869 5.14401 141.874 5.14401H143.09C144.776 5.14401 146.13 5.53868 147.154 6.32801C148.178 7.11735 148.797 8.18401 149.01 9.52801H146.13C146.002 8.97335 145.683 8.53601 145.171 8.21601C144.659 7.87468 143.965 7.70401 143.09 7.70401H141.874C140.786 7.70401 139.987 7.90668 139.475 8.31201C138.984 8.71735 138.738 9.32535 138.738 10.136C138.738 10.8613 138.952 11.3947 139.378 11.736C139.805 12.0773 140.477 12.3227 141.395 12.472L143.762 12.856C145.661 13.1547 147.037 13.7093 147.891 14.52C148.765 15.3307 149.202 16.504 149.202 18.04C149.202 19.6613 148.68 20.9413 147.635 21.88C146.611 22.7973 145.053 23.256 142.962 23.256H141.618Z" fill="url(#paint0_linear_4_102)"/>
<path d="M124.895 23C123.38 23 122.196 22.5947 121.343 21.784C120.511 20.9733 120.095 19.832 120.095 18.36V8.024H115.135V5.4H120.095V0.440002H122.975V5.4H130.015V8.024H122.975V18.36C122.975 19.704 123.615 20.376 124.895 20.376H129.695V23H124.895Z" fill="url(#paint1_linear_4_102)"/>
<path d="M103.915 23.32C102.507 23.32 101.27 23.0533 100.203 22.52C99.1581 21.9867 98.3475 21.2187 97.7715 20.216C97.1955 19.192 96.9075 17.9867 96.9075 16.6V11.8C96.9075 10.392 97.1955 9.18665 97.7715 8.18398C98.3475 7.18132 99.1581 6.41332 100.203 5.87999C101.27 5.34665 102.507 5.07999 103.915 5.07999C105.942 5.07999 107.574 5.62399 108.811 6.71199C110.049 7.79999 110.699 9.28265 110.763 11.16H107.883C107.819 10.0293 107.435 9.16532 106.731 8.56799C106.049 7.94932 105.11 7.63999 103.915 7.63999C102.657 7.63999 101.654 8.00265 100.907 8.72799C100.161 9.43199 99.7875 10.4453 99.7875 11.768V16.6C99.7875 17.9227 100.161 18.9467 100.907 19.672C101.654 20.3973 102.657 20.76 103.915 20.76C105.11 20.76 106.049 20.4507 106.731 19.832C107.435 19.2133 107.819 18.3493 107.883 17.24H110.763C110.699 19.1173 110.049 20.6 108.811 21.688C107.574 22.776 105.942 23.32 103.915 23.32Z" fill="url(#paint2_linear_4_102)"/>
<path d="M83.064 23.32C81.208 23.32 79.7466 22.8507 78.68 21.912C77.6133 20.952 77.08 19.6613 77.08 18.04C77.08 16.3973 77.6133 15.1067 78.68 14.168C79.7466 13.2293 81.1866 12.76 83 12.76H88.44V11C88.44 9.91199 88.1093 9.07999 87.448 8.50399C86.808 7.90665 85.8906 7.60798 84.696 7.60798C83.6506 7.60798 82.776 7.83198 82.072 8.27999C81.368 8.70665 80.9626 9.29332 80.856 10.04H77.976C78.168 8.52532 78.8826 7.31999 80.12 6.42399C81.3573 5.52799 82.904 5.07999 84.76 5.07999C86.7866 5.07999 88.3866 5.60265 89.56 6.64799C90.7333 7.69332 91.32 9.11199 91.32 10.904V23H88.504V19.64H88.024L88.504 19.16C88.504 20.44 88.0026 21.4533 87 22.2C86.0186 22.9467 84.7066 23.32 83.064 23.32ZM83.768 21.048C85.1333 21.048 86.2533 20.7067 87.128 20.024C88.0026 19.3413 88.44 18.4667 88.44 17.4V14.904H83.064C82.104 14.904 81.3466 15.1707 80.792 15.704C80.2373 16.2373 79.96 16.9627 79.96 17.88C79.96 18.8613 80.2906 19.64 80.952 20.216C81.6346 20.7707 82.5733 21.048 83.768 21.048Z" fill="url(#paint3_linear_4_102)"/>
<path d="M67.3325 23C65.8178 23 64.6338 22.5947 63.7805 21.784C62.9485 20.9733 62.5325 19.832 62.5325 18.36V8.024H57.5725V5.4H62.5325V0.440002H65.4125V5.4H72.4525V8.024H65.4125V18.36C65.4125 19.704 66.0525 20.376 67.3325 20.376H72.1325V23H67.3325Z" fill="url(#paint4_linear_4_102)"/>
<path d="M39.569 23V5.39999H42.449V8.75998H43.057L42.449 9.43199C42.449 8.04532 42.865 6.97865 43.697 6.23199C44.529 5.46399 45.681 5.07999 47.153 5.07999C48.9236 5.07999 50.3316 5.62399 51.377 6.71199C52.4223 7.79999 52.945 9.28265 52.945 11.16V23H50.065V11.48C50.065 10.2213 49.7236 9.26132 49.041 8.59999C48.3796 7.91732 47.473 7.57599 46.321 7.57599C45.1263 7.57599 44.177 7.93865 43.473 8.66399C42.7903 9.38932 42.449 10.4347 42.449 11.8V23H39.569Z" fill="url(#paint5_linear_4_102)"/>
<path d="M27.0375 23.256C25.6295 23.256 24.4135 22.9893 23.3895 22.456C22.3655 21.9227 21.5655 21.1547 20.9895 20.152C20.4348 19.128 20.1575 17.9227 20.1575 16.536V11.864C20.1575 10.456 20.4348 9.25068 20.9895 8.24801C21.5655 7.24535 22.3655 6.47735 23.3895 5.94401C24.4135 5.41068 25.6295 5.14401 27.0375 5.14401C28.4455 5.14401 29.6615 5.41068 30.6855 5.94401C31.7095 6.47735 32.4988 7.24535 33.0535 8.24801C33.6295 9.25068 33.9175 10.4453 33.9175 11.832V16.536C33.9175 17.9227 33.6295 19.128 33.0535 20.152C32.4988 21.1547 31.7095 21.9227 30.6855 22.456C29.6615 22.9893 28.4455 23.256 27.0375 23.256ZM27.0375 20.696C28.2961 20.696 29.2775 20.344 29.9815 19.64C30.6855 18.936 31.0375 17.9013 31.0375 16.536V11.864C31.0375 10.4987 30.6855 9.46401 29.9815 8.76001C29.2775 8.05601 28.2961 7.70401 27.0375 7.70401C25.8001 7.70401 24.8188 8.05601 24.0935 8.76001C23.3895 9.46401 23.0375 10.4987 23.0375 11.864V16.536C23.0375 17.9013 23.3895 18.936 24.0935 19.64C24.8188 20.344 25.8001 20.696 27.0375 20.696Z" fill="url(#paint6_linear_4_102)"/>
<path d="M7.97797 23.32C6.56997 23.32 5.33264 23.0533 4.26597 22.52C3.22064 21.9867 2.40997 21.2187 1.83397 20.216C1.25797 19.192 0.969971 17.9867 0.969971 16.6V11.8C0.969971 10.392 1.25797 9.18665 1.83397 8.18398C2.40997 7.18132 3.22064 6.41332 4.26597 5.87999C5.33264 5.34665 6.56997 5.07999 7.97797 5.07999C10.0046 5.07999 11.6366 5.62399 12.874 6.71199C14.1113 7.79999 14.762 9.28265 14.826 11.16H11.946C11.882 10.0293 11.498 9.16532 10.794 8.56799C10.1113 7.94932 9.17264 7.63999 7.97797 7.63999C6.7193 7.63999 5.71664 8.00265 4.96997 8.72799C4.2233 9.43199 3.84997 10.4453 3.84997 11.768V16.6C3.84997 17.9227 4.2233 18.9467 4.96997 19.672C5.71664 20.3973 6.7193 20.76 7.97797 20.76C9.17264 20.76 10.1113 20.4507 10.794 19.832C11.498 19.2133 11.882 18.3493 11.946 17.24H14.826C14.762 19.1173 14.1113 20.6 12.874 21.688C11.6366 22.776 10.0046 23.32 7.97797 23.32Z" fill="url(#paint7_linear_4_102)"/>
<defs>
<linearGradient id="paint0_linear_4_102" x1="142.323" y1="23.256" x2="142.323" y2="5.14401" gradientUnits="userSpaceOnUse">
<stop stop-color="#4E54C8"/>
<stop offset="1" stop-color="#8F94FB"/>
</linearGradient>
<linearGradient id="paint1_linear_4_102" x1="122.575" y1="23" x2="122.575" y2="0.440002" gradientUnits="userSpaceOnUse">
<stop stop-color="#4E54C8"/>
<stop offset="1" stop-color="#8F94FB"/>
</linearGradient>
<linearGradient id="paint2_linear_4_102" x1="103.835" y1="23.32" x2="103.835" y2="5.07999" gradientUnits="userSpaceOnUse">
<stop stop-color="#4E54C8"/>
<stop offset="1" stop-color="#8F94FB"/>
</linearGradient>
<linearGradient id="paint3_linear_4_102" x1="84.2" y1="23.32" x2="84.2" y2="5.07999" gradientUnits="userSpaceOnUse">
<stop stop-color="#4E54C8"/>
<stop offset="1" stop-color="#8F94FB"/>
</linearGradient>
<linearGradient id="paint4_linear_4_102" x1="65.0125" y1="23" x2="65.0125" y2="0.440002" gradientUnits="userSpaceOnUse">
<stop stop-color="#4E54C8"/>
<stop offset="1" stop-color="#8F94FB"/>
</linearGradient>
<linearGradient id="paint5_linear_4_102" x1="46.257" y1="23" x2="46.257" y2="5.07999" gradientUnits="userSpaceOnUse">
<stop stop-color="#4E54C8"/>
<stop offset="1" stop-color="#8F94FB"/>
</linearGradient>
<linearGradient id="paint6_linear_4_102" x1="27.0375" y1="23.256" x2="27.0375" y2="5.14401" gradientUnits="userSpaceOnUse">
<stop stop-color="#4E54C8"/>
<stop offset="1" stop-color="#8F94FB"/>
</linearGradient>
<linearGradient id="paint7_linear_4_102" x1="7.89797" y1="23.32" x2="7.89797" y2="5.07999" gradientUnits="userSpaceOnUse">
<stop stop-color="#4E54C8"/>
<stop offset="1" stop-color="#8F94FB"/>
</linearGradient>
</defs>
</svg>

