<svg width="130" height="26" viewBox="0 0 130 26" fill="none" xmlns="http://www.w3.org/2000/svg">
<path d="M121.545 25.32C119.795 25.32 118.377 24.7333 117.289 23.56C116.222 22.3867 115.689 20.7973 115.689 18.792V13.64C115.689 11.6133 116.222 10.0133 117.289 8.84002C118.355 7.66668 119.774 7.08002 121.545 7.08002C122.995 7.08002 124.158 7.47468 125.033 8.26402C125.907 9.05335 126.345 10.1093 126.345 11.432L125.769 10.76H126.409L126.345 6.76001V1.64001H129.225V25H126.345V21.64H125.769L126.345 20.968C126.345 22.312 125.907 23.3787 125.033 24.168C124.158 24.936 122.995 25.32 121.545 25.32ZM122.505 22.824C123.699 22.824 124.638 22.4507 125.321 21.704C126.003 20.9573 126.345 19.9227 126.345 18.6V13.8C126.345 12.4773 126.003 11.4427 125.321 10.696C124.638 9.94935 123.699 9.57602 122.505 9.57602C121.289 9.57602 120.329 9.93868 119.625 10.664C118.921 11.3893 118.569 12.4347 118.569 13.8V18.6C118.569 19.9653 118.921 21.0107 119.625 21.736C120.329 22.4613 121.289 22.824 122.505 22.824Z" fill="url(#paint0_linear_5_134)"/>
<path d="M97.3333 25V7.40002H100.149V10.76H100.821L99.8932 12.84C99.8932 10.9414 100.299 9.51202 101.109 8.55202C101.941 7.57068 103.168 7.08002 104.789 7.08002C106.645 7.08002 108.117 7.66668 109.205 8.84002C110.315 9.99202 110.869 11.56 110.869 13.544V14.6H107.989V13.8C107.989 12.4133 107.648 11.3574 106.965 10.632C106.304 9.88535 105.355 9.51202 104.117 9.51202C102.901 9.51202 101.941 9.88535 101.237 10.632C100.555 11.3787 100.213 12.4347 100.213 13.8V25H97.3333Z" fill="url(#paint1_linear_5_134)"/>
<path d="M84.1937 25.256C82.7857 25.256 81.5697 24.9893 80.5457 24.456C79.5217 23.9227 78.7217 23.1546 78.1457 22.152C77.5911 21.128 77.3137 19.9226 77.3137 18.536V13.864C77.3137 12.456 77.5911 11.2506 78.1457 10.248C78.7217 9.24532 79.5217 8.47732 80.5457 7.94398C81.5697 7.41065 82.7857 7.14398 84.1937 7.14398C85.6017 7.14398 86.8177 7.41065 87.8417 7.94398C88.8657 8.47732 89.655 9.24532 90.2097 10.248C90.7857 11.2506 91.0737 12.4453 91.0737 13.832V18.536C91.0737 19.9226 90.7857 21.128 90.2097 22.152C89.655 23.1546 88.8657 23.9227 87.8417 24.456C86.8177 24.9893 85.6017 25.256 84.1937 25.256ZM84.1937 22.696C85.4524 22.696 86.4337 22.344 87.1377 21.64C87.8417 20.936 88.1937 19.9013 88.1937 18.536V13.864C88.1937 12.4986 87.8417 11.464 87.1377 10.76C86.4337 10.056 85.4524 9.70398 84.1937 9.70398C82.9564 9.70398 81.9751 10.056 81.2497 10.76C80.5457 11.464 80.1937 12.4986 80.1937 13.864V18.536C80.1937 19.9013 80.5457 20.936 81.2497 21.64C81.9751 22.344 82.9564 22.696 84.1937 22.696Z" fill="url(#paint2_linear_5_134)"/>
<path d="M65.1342 25.32C63.7262 25.32 62.4889 25.0534 61.4222 24.52C60.3769 23.9867 59.5662 23.2187 58.9902 22.216C58.4142 21.192 58.1262 19.9867 58.1262 18.6V13.8C58.1262 12.392 58.4142 11.1867 58.9902 10.184C59.5662 9.18135 60.3769 8.41335 61.4222 7.88002C62.4889 7.34668 63.7262 7.08002 65.1342 7.08002C67.1609 7.08002 68.7929 7.62402 70.0302 8.71202C71.2676 9.80002 71.9182 11.2827 71.9822 13.16H69.1022C69.0382 12.0294 68.6542 11.1653 67.9502 10.568C67.2676 9.94935 66.3289 9.64002 65.1342 9.64002C63.8755 9.64002 62.8729 10.0027 62.1262 10.728C61.3796 11.432 61.0062 12.4454 61.0062 13.768V18.6C61.0062 19.9227 61.3796 20.9467 62.1262 21.672C62.8729 22.3974 63.8755 22.76 65.1342 22.76C66.3289 22.76 67.2676 22.4507 67.9502 21.832C68.6542 21.2134 69.0382 20.3494 69.1022 19.24H71.9822C71.9182 21.1174 71.2676 22.6 70.0302 23.688C68.7929 24.776 67.1609 25.32 65.1342 25.32Z" fill="url(#paint3_linear_5_134)"/>
<path d="M45.2748 25.256C44.0801 25.256 43.0348 25.0747 42.1388 24.712C41.2641 24.328 40.5601 23.7946 40.0268 23.112C39.5148 22.4293 39.2054 21.6186 39.0988 20.68H41.9788C42.1068 21.2986 42.4481 21.7893 43.0028 22.152C43.5788 22.5146 44.3361 22.696 45.2748 22.696H46.6188C47.7494 22.696 48.5921 22.472 49.1468 22.024C49.7014 21.5546 49.9788 20.936 49.9788 20.168C49.9788 19.4213 49.7228 18.8346 49.2108 18.408C48.7201 17.96 47.9841 17.6613 47.0028 17.512L44.6348 17.128C42.9068 16.8293 41.6161 16.296 40.7628 15.528C39.9308 14.7386 39.5148 13.5973 39.5148 12.104C39.5148 10.5253 40.0161 9.30932 41.0188 8.45598C42.0214 7.58132 43.5254 7.14398 45.5308 7.14398H46.7468C48.4321 7.14398 49.7868 7.53865 50.8108 8.32798C51.8348 9.11732 52.4534 10.184 52.6668 11.528H49.7868C49.6588 10.9733 49.3388 10.536 48.8268 10.216C48.3148 9.87465 47.6214 9.70398 46.7468 9.70398H45.5308C44.4428 9.70398 43.6428 9.90665 43.1308 10.312C42.6401 10.7173 42.3948 11.3253 42.3948 12.136C42.3948 12.8613 42.6081 13.3946 43.0348 13.736C43.4614 14.0773 44.1334 14.3226 45.0508 14.472L47.4188 14.856C49.3174 15.1546 50.6934 15.7093 51.5468 16.52C52.4214 17.3307 52.8588 18.504 52.8588 20.04C52.8588 21.6613 52.3361 22.9413 51.2908 23.88C50.2668 24.7973 48.7094 25.256 46.6188 25.256H45.2748Z" fill="url(#paint4_linear_5_134)"/>
<path d="M19.7512 25V22.376H25.9912V10.024H20.5512V7.39999H28.8712V22.376H34.7912V25H19.7512ZM27.1112 4.23199C26.4072 4.23199 25.8526 4.05065 25.4472 3.68799C25.0419 3.32532 24.8392 2.83465 24.8392 2.21599C24.8392 1.57599 25.0419 1.07465 25.4472 0.711985C25.8526 0.327986 26.4072 0.135986 27.1112 0.135986C27.8152 0.135986 28.3699 0.327986 28.7752 0.711985C29.1806 1.07465 29.3832 1.57599 29.3832 2.21599C29.3832 2.83465 29.1806 3.32532 28.7752 3.68799C28.3699 4.05065 27.8152 4.23199 27.1112 4.23199Z" fill="url(#paint5_linear_5_134)"/>
<path d="M6.41972 25.32C4.67039 25.32 3.25172 24.7333 2.16372 23.56C1.09705 22.3867 0.563721 20.7973 0.563721 18.792V13.64C0.563721 11.6133 1.09705 10.0133 2.16372 8.84002C3.23039 7.66668 4.64905 7.08002 6.41972 7.08002C7.87039 7.08002 9.03305 7.47468 9.90772 8.26402C10.7824 9.05335 11.2197 10.1093 11.2197 11.432L10.6437 10.76H11.2837L11.2197 6.76001V1.64001H14.0997V25H11.2197V21.64H10.6437L11.2197 20.968C11.2197 22.312 10.7824 23.3787 9.90772 24.168C9.03305 24.936 7.87039 25.32 6.41972 25.32ZM7.37972 22.824C8.57439 22.824 9.51306 22.4507 10.1957 21.704C10.8784 20.9573 11.2197 19.9227 11.2197 18.6V13.8C11.2197 12.4773 10.8784 11.4427 10.1957 10.696C9.51306 9.94935 8.57439 9.57602 7.37972 9.57602C6.16372 9.57602 5.20372 9.93868 4.49972 10.664C3.79572 11.3893 3.44372 12.4347 3.44372 13.8V18.6C3.44372 19.9653 3.79572 21.0107 4.49972 21.736C5.20372 22.4613 6.16372 22.824 7.37972 22.824Z" fill="url(#paint6_linear_5_134)"/>
<defs>
<linearGradient id="paint0_linear_5_134" x1="122.457" y1="25.32" x2="122.457" y2="1.64001" gradientUnits="userSpaceOnUse">
<stop stop-color="#4E54C8"/>
<stop offset="1" stop-color="#8F94FB"/>
</linearGradient>
<linearGradient id="paint1_linear_5_134" x1="104.101" y1="25" x2="104.101" y2="7.08002" gradientUnits="userSpaceOnUse">
<stop stop-color="#4E54C8"/>
<stop offset="1" stop-color="#8F94FB"/>
</linearGradient>
<linearGradient id="paint2_linear_5_134" x1="84.1937" y1="25.256" x2="84.1937" y2="7.14398" gradientUnits="userSpaceOnUse">
<stop stop-color="#4E54C8"/>
<stop offset="1" stop-color="#8F94FB"/>
</linearGradient>
<linearGradient id="paint3_linear_5_134" x1="65.0542" y1="25.32" x2="65.0542" y2="7.08002" gradientUnits="userSpaceOnUse">
<stop stop-color="#4E54C8"/>
<stop offset="1" stop-color="#8F94FB"/>
</linearGradient>
<linearGradient id="paint4_linear_5_134" x1="45.9788" y1="25.256" x2="45.9788" y2="7.14398" gradientUnits="userSpaceOnUse">
<stop stop-color="#4E54C8"/>
<stop offset="1" stop-color="#8F94FB"/>
</linearGradient>
<linearGradient id="paint5_linear_5_134" x1="27.2712" y1="25" x2="27.2712" y2="0.135986" gradientUnits="userSpaceOnUse">
<stop stop-color="#4E54C8"/>
<stop offset="1" stop-color="#8F94FB"/>
</linearGradient>
<linearGradient id="paint6_linear_5_134" x1="7.33172" y1="25.32" x2="7.33172" y2="1.64001" gradientUnits="userSpaceOnUse">
<stop stop-color="#4E54C8"/>
<stop offset="1" stop-color="#8F94FB"/>
</linearGradient>
</defs>
</svg>

