<svg width="111" height="26" viewBox="0 0 111 26" fill="none" xmlns="http://www.w3.org/2000/svg">
<path d="M102.431 25.256C101.236 25.256 100.191 25.0747 99.295 24.712C98.4203 24.328 97.7163 23.7946 97.183 23.112C96.671 22.4293 96.3617 21.6186 96.255 20.68H99.135C99.263 21.2986 99.6043 21.7893 100.159 22.152C100.735 22.5146 101.492 22.696 102.431 22.696H103.775C104.906 22.696 105.748 22.472 106.303 22.024C106.858 21.5546 107.135 20.936 107.135 20.168C107.135 19.4213 106.879 18.8346 106.367 18.408C105.876 17.96 105.14 17.6613 104.159 17.512L101.791 17.128C100.063 16.8293 98.7723 16.296 97.919 15.528C97.087 14.7386 96.671 13.5973 96.671 12.104C96.671 10.5253 97.1723 9.30932 98.175 8.45598C99.1777 7.58132 100.682 7.14398 102.687 7.14398H103.903C105.588 7.14398 106.943 7.53865 107.967 8.32798C108.991 9.11732 109.61 10.184 109.823 11.528H106.943C106.815 10.9733 106.495 10.536 105.983 10.216C105.471 9.87465 104.778 9.70398 103.903 9.70398H102.687C101.599 9.70398 100.799 9.90665 100.287 10.312C99.7963 10.7173 99.551 11.3253 99.551 12.136C99.551 12.8613 99.7643 13.3946 100.191 13.736C100.618 14.0773 101.29 14.3226 102.207 14.472L104.575 14.856C106.474 15.1546 107.85 15.7093 108.703 16.52C109.578 17.3307 110.015 18.504 110.015 20.04C110.015 21.6613 109.492 22.9413 108.447 23.88C107.423 24.7973 105.866 25.256 103.775 25.256H102.431Z" fill="url(#paint0_linear_4_94)"/>
<path d="M86.1875 25C85.1635 25 84.2675 24.7973 83.4995 24.392C82.7315 23.9867 82.1341 23.4107 81.7075 22.664C81.2808 21.9173 81.0675 21.0427 81.0675 20.04V4.26402H75.1475V1.64001H83.9475V20.04C83.9475 20.7653 84.1501 21.3413 84.5555 21.768C84.9608 22.1733 85.5048 22.376 86.1875 22.376H91.7875V25H86.1875Z" fill="url(#paint1_linear_4_94)"/>
<path d="M67 25C65.976 25 65.08 24.7973 64.312 24.392C63.544 23.9867 62.9466 23.4107 62.52 22.664C62.0933 21.9173 61.88 21.0427 61.88 20.04V4.26402H55.96V1.64001H64.76V20.04C64.76 20.7653 64.9626 21.3413 65.368 21.768C65.7733 22.1733 66.3173 22.376 67 22.376H72.6V25H67Z" fill="url(#paint2_linear_4_94)"/>
<path d="M38.5325 25V22.376H44.7725V10.024H39.3325V7.39999H47.6525V22.376H53.5725V25H38.5325ZM45.8925 4.23199C45.1885 4.23199 44.6338 4.05065 44.2285 3.68799C43.8231 3.32532 43.6205 2.83465 43.6205 2.21599C43.6205 1.57599 43.8231 1.07465 44.2285 0.711985C44.6338 0.327986 45.1885 0.135986 45.8925 0.135986C46.5965 0.135986 47.1511 0.327986 47.5565 0.711985C47.9618 1.07465 48.1645 1.57599 48.1645 2.21599C48.1645 2.83465 47.9618 3.32532 47.5565 3.68799C47.1511 4.05065 46.5965 4.23199 45.8925 4.23199Z" fill="url(#paint3_linear_4_94)"/>
<path d="M19.665 25V1.64001H22.545V14.664H25.937L31.057 7.40001H34.353L28.433 15.784L34.449 25H31.089L25.969 17.16H22.545V25H19.665Z" fill="url(#paint4_linear_4_94)"/>
<path d="M6.4935 25.256C5.29884 25.256 4.2535 25.0747 3.3575 24.712C2.48284 24.328 1.77884 23.7946 1.2455 23.112C0.733504 22.4293 0.424172 21.6186 0.317505 20.68H3.19751C3.32551 21.2986 3.66684 21.7893 4.2215 22.152C4.7975 22.5146 5.55484 22.696 6.4935 22.696H7.83751C8.96817 22.696 9.81084 22.472 10.3655 22.024C10.9202 21.5546 11.1975 20.936 11.1975 20.168C11.1975 19.4213 10.9415 18.8346 10.4295 18.408C9.93884 17.96 9.20284 17.6613 8.2215 17.512L5.8535 17.128C4.1255 16.8293 2.83484 16.296 1.9815 15.528C1.1495 14.7386 0.733503 13.5973 0.733503 12.104C0.733503 10.5253 1.23484 9.30932 2.2375 8.45598C3.24017 7.58132 4.74417 7.14398 6.7495 7.14398H7.9655C9.65084 7.14398 11.0055 7.53865 12.0295 8.32798C13.0535 9.11732 13.6722 10.184 13.8855 11.528H11.0055C10.8775 10.9733 10.5575 10.536 10.0455 10.216C9.53351 9.87465 8.84017 9.70398 7.9655 9.70398H6.7495C5.6615 9.70398 4.8615 9.90665 4.3495 10.312C3.85884 10.7173 3.6135 11.3253 3.6135 12.136C3.6135 12.8613 3.82684 13.3946 4.25351 13.736C4.68017 14.0773 5.35217 14.3226 6.2695 14.472L8.6375 14.856C10.5362 15.1546 11.9122 15.7093 12.7655 16.52C13.6402 17.3307 14.0775 18.504 14.0775 20.04C14.0775 21.6613 13.5548 22.9413 12.5095 23.88C11.4855 24.7973 9.92817 25.256 7.83751 25.256H6.4935Z" fill="url(#paint5_linear_4_94)"/>
<defs>
<linearGradient id="paint0_linear_4_94" x1="103.135" y1="25.256" x2="103.135" y2="7.14398" gradientUnits="userSpaceOnUse">
<stop stop-color="#4E54C8"/>
<stop offset="1" stop-color="#8F94FB"/>
</linearGradient>
<linearGradient id="paint1_linear_4_94" x1="83.4675" y1="25" x2="83.4675" y2="1.64001" gradientUnits="userSpaceOnUse">
<stop stop-color="#4E54C8"/>
<stop offset="1" stop-color="#8F94FB"/>
</linearGradient>
<linearGradient id="paint2_linear_4_94" x1="64.28" y1="25" x2="64.28" y2="1.64001" gradientUnits="userSpaceOnUse">
<stop stop-color="#4E54C8"/>
<stop offset="1" stop-color="#8F94FB"/>
</linearGradient>
<linearGradient id="paint3_linear_4_94" x1="46.0525" y1="25" x2="46.0525" y2="0.135986" gradientUnits="userSpaceOnUse">
<stop stop-color="#4E54C8"/>
<stop offset="1" stop-color="#8F94FB"/>
</linearGradient>
<linearGradient id="paint4_linear_4_94" x1="27.057" y1="25" x2="27.057" y2="1.64001" gradientUnits="userSpaceOnUse">
<stop stop-color="#4E54C8"/>
<stop offset="1" stop-color="#8F94FB"/>
</linearGradient>
<linearGradient id="paint5_linear_4_94" x1="7.1975" y1="25.256" x2="7.1975" y2="7.14398" gradientUnits="userSpaceOnUse">
<stop stop-color="#4E54C8"/>
<stop offset="1" stop-color="#8F94FB"/>
</linearGradient>
</defs>
</svg>

