<svg width="130" height="26" viewBox="0 0 130 26" fill="none" xmlns="http://www.w3.org/2000/svg">
<path d="M122.025 25.256C120.83 25.256 119.785 25.0747 118.889 24.712C118.014 24.328 117.31 23.7946 116.777 23.112C116.265 22.4293 115.955 21.6186 115.849 20.68H118.729C118.857 21.2986 119.198 21.7893 119.753 22.152C120.329 22.5146 121.086 22.696 122.025 22.696H123.369C124.499 22.696 125.342 22.472 125.897 22.024C126.451 21.5546 126.729 20.936 126.729 20.168C126.729 19.4213 126.473 18.8346 125.961 18.408C125.47 17.96 124.734 17.6613 123.753 17.512L121.385 17.128C119.657 16.8293 118.366 16.296 117.513 15.528C116.681 14.7386 116.265 13.5973 116.265 12.104C116.265 10.5253 116.766 9.30932 117.769 8.45598C118.771 7.58132 120.275 7.14398 122.281 7.14398H123.497C125.182 7.14398 126.537 7.53865 127.561 8.32798C128.585 9.11732 129.203 10.184 129.417 11.528H126.537C126.409 10.9733 126.089 10.536 125.577 10.216C125.065 9.87465 124.371 9.70398 123.497 9.70398H122.281C121.193 9.70398 120.393 9.90665 119.881 10.312C119.39 10.7173 119.145 11.3253 119.145 12.136C119.145 12.8613 119.358 13.3946 119.785 13.736C120.211 14.0773 120.883 14.3226 121.801 14.472L124.169 14.856C126.067 15.1546 127.443 15.7093 128.297 16.52C129.171 17.3307 129.609 18.504 129.609 20.04C129.609 21.6613 129.086 22.9413 128.041 23.88C127.017 24.7973 125.459 25.256 123.369 25.256H122.025Z" fill="url(#paint0_linear_5_143)"/>
<path d="M105.781 25C104.757 25 103.861 24.7973 103.093 24.392C102.325 23.9867 101.728 23.4107 101.301 22.664C100.875 21.9173 100.661 21.0427 100.661 20.04V4.26402H94.7412V1.64001H103.541V20.04C103.541 20.7653 103.744 21.3413 104.149 21.768C104.555 22.1733 105.099 22.376 105.781 22.376H111.381V25H105.781Z" fill="url(#paint1_linear_5_143)"/>
<path d="M82.6577 25.32C80.8017 25.32 79.3404 24.8507 78.2737 23.912C77.207 22.952 76.6737 21.6614 76.6737 20.04C76.6737 18.3974 77.207 17.1067 78.2737 16.168C79.3404 15.2293 80.7804 14.76 82.5937 14.76H88.0337V13C88.0337 11.912 87.703 11.08 87.0417 10.504C86.4017 9.90668 85.4844 9.60802 84.2897 9.60802C83.2444 9.60802 82.3697 9.83202 81.6657 10.28C80.9617 10.7067 80.5564 11.2933 80.4497 12.04H77.5697C77.7617 10.5253 78.4764 9.32002 79.7137 8.42402C80.951 7.52802 82.4977 7.08002 84.3537 7.08002C86.3804 7.08002 87.9804 7.60268 89.1537 8.64802C90.327 9.69335 90.9137 11.112 90.9137 12.904V25H88.0977V21.64H87.6177L88.0977 21.16C88.0977 22.44 87.5964 23.4534 86.5937 24.2C85.6124 24.9467 84.3004 25.32 82.6577 25.32ZM83.3617 23.048C84.727 23.048 85.847 22.7067 86.7217 22.024C87.5964 21.3414 88.0337 20.4667 88.0337 19.4V16.904H82.6577C81.6977 16.904 80.9404 17.1707 80.3857 17.704C79.831 18.2373 79.5537 18.9627 79.5537 19.88C79.5537 20.8613 79.8844 21.64 80.5457 22.216C81.2284 22.7707 82.167 23.048 83.3617 23.048Z" fill="url(#paint2_linear_5_143)"/>
<path d="M58.1262 25V22.376H64.3662V10.024H58.9262V7.39999H67.2462V22.376H73.1662V25H58.1262ZM65.4862 4.23199C64.7822 4.23199 64.2276 4.05065 63.8222 3.68799C63.4169 3.32532 63.2142 2.83465 63.2142 2.21599C63.2142 1.57599 63.4169 1.07465 63.8222 0.711985C64.2276 0.327986 64.7822 0.135986 65.4862 0.135986C66.1902 0.135986 66.7449 0.327986 67.1502 0.711985C67.5556 1.07465 67.7582 1.57599 67.7582 2.21599C67.7582 2.83465 67.5556 3.32532 67.1502 3.68799C66.7449 4.05065 66.1902 4.23199 65.4862 4.23199Z" fill="url(#paint3_linear_5_143)"/>
<path d="M45.9467 25.32C44.5387 25.32 43.3014 25.0534 42.2347 24.52C41.1894 23.9867 40.3787 23.2187 39.8027 22.216C39.2267 21.192 38.9387 19.9867 38.9387 18.6V13.8C38.9387 12.392 39.2267 11.1867 39.8027 10.184C40.3787 9.18135 41.1894 8.41335 42.2347 7.88002C43.3014 7.34668 44.5387 7.08002 45.9467 7.08002C47.9734 7.08002 49.6054 7.62402 50.8427 8.71202C52.0801 9.80002 52.7307 11.2827 52.7947 13.16H49.9147C49.8507 12.0294 49.4667 11.1653 48.7627 10.568C48.0801 9.94935 47.1414 9.64002 45.9467 9.64002C44.688 9.64002 43.6854 10.0027 42.9387 10.728C42.1921 11.432 41.8187 12.4454 41.8187 13.768V18.6C41.8187 19.9227 42.1921 20.9467 42.9387 21.672C43.6854 22.3974 44.688 22.76 45.9467 22.76C47.1414 22.76 48.0801 22.4507 48.7627 21.832C49.4667 21.2134 49.8507 20.3494 49.9147 19.24H52.7947C52.7307 21.1174 52.0801 22.6 50.8427 23.688C49.6054 24.776 47.9734 25.32 45.9467 25.32Z" fill="url(#paint4_linear_5_143)"/>
<path d="M26.6312 25.256C25.2232 25.256 24.0072 24.9893 22.9832 24.456C21.9592 23.9227 21.1592 23.1546 20.5832 22.152C20.0286 21.128 19.7512 19.9226 19.7512 18.536V13.864C19.7512 12.456 20.0286 11.2506 20.5832 10.248C21.1592 9.24532 21.9592 8.47732 22.9832 7.94398C24.0072 7.41065 25.2232 7.14398 26.6312 7.14398C28.0392 7.14398 29.2552 7.41065 30.2792 7.94398C31.3032 8.47732 32.0926 9.24532 32.6472 10.248C33.2232 11.2506 33.5112 12.4453 33.5112 13.832V18.536C33.5112 19.9226 33.2232 21.128 32.6472 22.152C32.0926 23.1546 31.3032 23.9227 30.2792 24.456C29.2552 24.9893 28.0392 25.256 26.6312 25.256ZM26.6312 22.696C27.8899 22.696 28.8712 22.344 29.5752 21.64C30.2792 20.936 30.6312 19.9013 30.6312 18.536V13.864C30.6312 12.4986 30.2792 11.464 29.5752 10.76C28.8712 10.056 27.8899 9.70398 26.6312 9.70398C25.3939 9.70398 24.4126 10.056 23.6872 10.76C22.9832 11.464 22.6312 12.4986 22.6312 13.864V18.536C22.6312 19.9013 22.9832 20.936 23.6872 21.64C24.4126 22.344 25.3939 22.696 26.6312 22.696Z" fill="url(#paint5_linear_5_143)"/>
<path d="M6.89975 25.256C5.70509 25.256 4.65975 25.0747 3.76375 24.712C2.88909 24.328 2.18509 23.7946 1.65175 23.112C1.13975 22.4293 0.830422 21.6186 0.723755 20.68H3.60375C3.73175 21.2986 4.07309 21.7893 4.62775 22.152C5.20375 22.5146 5.96109 22.696 6.89975 22.696H8.24376C9.37442 22.696 10.2171 22.472 10.7718 22.024C11.3264 21.5546 11.6038 20.936 11.6038 20.168C11.6038 19.4213 11.3478 18.8346 10.8358 18.408C10.3451 17.96 9.60909 17.6613 8.62775 17.512L6.25975 17.128C4.53175 16.8293 3.24109 16.296 2.38775 15.528C1.55575 14.7386 1.13975 13.5973 1.13975 12.104C1.13975 10.5253 1.64109 9.30932 2.64375 8.45598C3.64642 7.58132 5.15042 7.14398 7.15575 7.14398H8.37175C10.0571 7.14398 11.4118 7.53865 12.4358 8.32798C13.4598 9.11732 14.0784 10.184 14.2918 11.528H11.4118C11.2838 10.9733 10.9638 10.536 10.4518 10.216C9.93976 9.87465 9.24642 9.70398 8.37175 9.70398H7.15575C6.06775 9.70398 5.26775 9.90665 4.75575 10.312C4.26509 10.7173 4.01975 11.3253 4.01975 12.136C4.01975 12.8613 4.23309 13.3946 4.65975 13.736C5.08642 14.0773 5.75842 14.3226 6.67575 14.472L9.04375 14.856C10.9424 15.1546 12.3184 15.7093 13.1718 16.52C14.0464 17.3307 14.4838 18.504 14.4838 20.04C14.4838 21.6613 13.9611 22.9413 12.9158 23.88C11.8918 24.7973 10.3344 25.256 8.24376 25.256H6.89975Z" fill="url(#paint6_linear_5_143)"/>
<defs>
<linearGradient id="paint0_linear_5_143" x1="122.729" y1="25.256" x2="122.729" y2="7.14398" gradientUnits="userSpaceOnUse">
<stop stop-color="#4E54C8"/>
<stop offset="1" stop-color="#8F94FB"/>
</linearGradient>
<linearGradient id="paint1_linear_5_143" x1="103.061" y1="25" x2="103.061" y2="1.64001" gradientUnits="userSpaceOnUse">
<stop stop-color="#4E54C8"/>
<stop offset="1" stop-color="#8F94FB"/>
</linearGradient>
<linearGradient id="paint2_linear_5_143" x1="83.7937" y1="25.32" x2="83.7937" y2="7.08002" gradientUnits="userSpaceOnUse">
<stop stop-color="#4E54C8"/>
<stop offset="1" stop-color="#8F94FB"/>
</linearGradient>
<linearGradient id="paint3_linear_5_143" x1="65.6462" y1="25" x2="65.6462" y2="0.135986" gradientUnits="userSpaceOnUse">
<stop stop-color="#4E54C8"/>
<stop offset="1" stop-color="#8F94FB"/>
</linearGradient>
<linearGradient id="paint4_linear_5_143" x1="45.8667" y1="25.32" x2="45.8667" y2="7.08002" gradientUnits="userSpaceOnUse">
<stop stop-color="#4E54C8"/>
<stop offset="1" stop-color="#8F94FB"/>
</linearGradient>
<linearGradient id="paint5_linear_5_143" x1="26.6312" y1="25.256" x2="26.6312" y2="7.14398" gradientUnits="userSpaceOnUse">
<stop stop-color="#4E54C8"/>
<stop offset="1" stop-color="#8F94FB"/>
</linearGradient>
<linearGradient id="paint6_linear_5_143" x1="7.60375" y1="25.256" x2="7.60375" y2="7.14398" gradientUnits="userSpaceOnUse">
<stop stop-color="#4E54C8"/>
<stop offset="1" stop-color="#8F94FB"/>
</linearGradient>
</defs>
</svg>

