<svg width="166" height="60" viewBox="0 0 166 60" fill="none" xmlns="http://www.w3.org/2000/svg">
<path d="M160.613 16.16C159.867 16.16 159.213 16.0467 158.653 15.82C158.107 15.58 157.667 15.2467 157.333 14.82C157.013 14.3934 156.82 13.8867 156.753 13.3H158.553C158.633 13.6867 158.847 13.9934 159.193 14.22C159.553 14.4467 160.027 14.56 160.613 14.56H161.453C162.16 14.56 162.687 14.42 163.033 14.14C163.38 13.8467 163.553 13.46 163.553 12.98C163.553 12.5134 163.393 12.1467 163.073 11.88C162.766 11.6 162.307 11.4134 161.693 11.32L160.213 11.08C159.133 10.8934 158.327 10.56 157.793 10.08C157.273 9.58669 157.013 8.87336 157.013 7.94003C157.013 6.95336 157.327 6.19336 157.953 5.66003C158.58 5.11336 159.52 4.84003 160.773 4.84003H161.533C162.587 4.84003 163.433 5.08669 164.073 5.58003C164.713 6.07336 165.1 6.74003 165.233 7.58003H163.433C163.353 7.23336 163.153 6.96003 162.833 6.76003C162.513 6.54669 162.08 6.44003 161.533 6.44003H160.773C160.093 6.44003 159.593 6.56669 159.273 6.82003C158.967 7.07336 158.813 7.45336 158.813 7.96003C158.813 8.41336 158.946 8.74669 159.213 8.96003C159.48 9.17336 159.9 9.32669 160.473 9.42003L161.953 9.66003C163.14 9.84669 164 10.1934 164.533 10.7C165.08 11.2067 165.353 11.94 165.353 12.9C165.353 13.9134 165.027 14.7134 164.373 15.3C163.733 15.8734 162.76 16.16 161.453 16.16H160.613Z" fill="white"/>
<path d="M144.661 16V14.36H148.561V6.64002H145.161V5.00002H150.361V14.36H154.061V16H144.661ZM149.261 3.02002C148.821 3.02002 148.474 2.90669 148.221 2.68002C147.968 2.45335 147.841 2.14669 147.841 1.76002C147.841 1.36002 147.968 1.04669 148.221 0.820021C148.474 0.580021 148.821 0.460022 149.261 0.460022C149.701 0.460022 150.048 0.580021 150.301 0.820021C150.554 1.04669 150.681 1.36002 150.681 1.76002C150.681 2.14669 150.554 2.45335 150.301 2.68002C150.048 2.90669 149.701 3.02002 149.261 3.02002Z" fill="white"/>
<path d="M124.977 16.2C124.11 16.2 123.35 16.0267 122.697 15.68C122.057 15.3333 121.557 14.8467 121.197 14.22C120.85 13.58 120.677 12.84 120.677 12V8.99999C120.677 8.14665 120.85 7.40665 121.197 6.77999C121.557 6.15332 122.057 5.66665 122.697 5.31999C123.35 4.97332 124.11 4.79999 124.977 4.79999C125.843 4.79999 126.597 4.97332 127.237 5.31999C127.89 5.66665 128.39 6.15332 128.737 6.77999C129.097 7.40665 129.277 8.14665 129.277 8.99999V10.94H122.437V12C122.437 12.8667 122.657 13.5333 123.097 14C123.537 14.4533 124.163 14.68 124.977 14.68C125.67 14.68 126.23 14.56 126.657 14.32C127.083 14.0667 127.343 13.6933 127.437 13.2H129.237C129.117 14.12 128.663 14.8533 127.877 15.4C127.103 15.9333 126.137 16.2 124.977 16.2ZM127.517 9.73999V8.99999C127.517 8.13332 127.297 7.46665 126.857 6.99999C126.43 6.53332 125.803 6.29999 124.977 6.29999C124.163 6.29999 123.537 6.53332 123.097 6.99999C122.657 7.46665 122.437 8.13332 122.437 8.99999V9.57999H127.657L127.517 9.73999Z" fill="white"/>
<path d="M108.304 16V4.99999H109.884V6.31999H110.244L109.964 6.79999C109.964 6.18665 110.124 5.69999 110.444 5.33999C110.778 4.97999 111.224 4.79999 111.784 4.79999C112.398 4.79999 112.871 5.02665 113.204 5.47999C113.538 5.93332 113.704 6.57332 113.704 7.39999L113.164 6.31999H114.004L113.624 6.79999C113.624 6.18665 113.791 5.69999 114.124 5.33999C114.471 4.97999 114.924 4.79999 115.484 4.79999C116.178 4.79999 116.711 5.05999 117.084 5.57999C117.471 6.09999 117.664 6.78665 117.664 7.63999V16H116.004V7.61999C116.004 7.16665 115.904 6.81332 115.704 6.55999C115.518 6.30665 115.238 6.17999 114.864 6.17999C114.504 6.17999 114.218 6.30665 114.004 6.55999C113.804 6.79999 113.704 7.14665 113.704 7.59999V16H112.264V7.61999C112.264 7.15332 112.158 6.79999 111.944 6.55999C111.744 6.30665 111.458 6.17999 111.084 6.17999C110.711 6.17999 110.431 6.30665 110.244 6.55999C110.058 6.79999 109.964 7.14665 109.964 7.59999V16H108.304Z" fill="white"/>
<path d="M100.032 16.2C98.8722 16.2 97.9589 15.9067 97.2922 15.32C96.6256 14.72 96.2922 13.9133 96.2922 12.9C96.2922 11.8733 96.6256 11.0667 97.2922 10.48C97.9589 9.89332 98.8589 9.59999 99.9922 9.59999H103.392V8.49999C103.392 7.81999 103.186 7.29999 102.772 6.93999C102.372 6.56665 101.799 6.37999 101.052 6.37999C100.399 6.37999 99.8522 6.51999 99.4122 6.79999C98.9722 7.06665 98.7189 7.43332 98.6522 7.89999H96.8522C96.9722 6.95332 97.4189 6.19999 98.1922 5.63999C98.9656 5.07999 99.9322 4.79999 101.092 4.79999C102.359 4.79999 103.359 5.12665 104.092 5.77999C104.826 6.43332 105.192 7.31999 105.192 8.43999V16H103.432V13.9H103.132L103.432 13.6C103.432 14.4 103.119 15.0333 102.492 15.5C101.879 15.9667 101.059 16.2 100.032 16.2ZM100.472 14.78C101.326 14.78 102.026 14.5667 102.572 14.14C103.119 13.7133 103.392 13.1667 103.392 12.5V10.94H100.032C99.4322 10.94 98.9589 11.1067 98.6122 11.44C98.2656 11.7733 98.0922 12.2267 98.0922 12.8C98.0922 13.4133 98.2989 13.9 98.7122 14.26C99.1389 14.6067 99.7256 14.78 100.472 14.78Z" fill="white"/>
<path d="M84.84 16V4.99999H86.64V7.09999H87.02L86.64 7.51999C86.64 6.65332 86.9 5.98665 87.42 5.51999C87.94 5.03999 88.66 4.79999 89.58 4.79999C90.6866 4.79999 91.5666 5.13999 92.22 5.81999C92.8733 6.49999 93.2 7.42665 93.2 8.59999V16H91.4V8.79999C91.4 8.01332 91.1866 7.41332 90.76 6.99999C90.3466 6.57332 89.78 6.35999 89.06 6.35999C88.3133 6.35999 87.72 6.58665 87.28 7.03999C86.8533 7.49332 86.64 8.14665 86.64 8.99999V16H84.84Z" fill="white"/>
<path d="M62.5756 19.6L64.1956 15.32L60.1156 5H62.1156L64.6756 11.8C64.7689 12.0267 64.8556 12.3 64.9356 12.62C65.0156 12.9267 65.0823 13.1867 65.1356 13.4C65.1889 13.1867 65.2556 12.9267 65.3356 12.62C65.4156 12.3 65.4956 12.0267 65.5756 11.8L67.9756 5H69.9156L64.4956 19.6H62.5756Z" fill="white"/>
<path d="M48.3434 16V4.99999H49.9234V6.31999H50.2834L50.0034 6.79999C50.0034 6.18665 50.1634 5.69999 50.4834 5.33999C50.8167 4.97999 51.2634 4.79999 51.8234 4.79999C52.4367 4.79999 52.9101 5.02665 53.2434 5.47999C53.5767 5.93332 53.7434 6.57332 53.7434 7.39999L53.2034 6.31999H54.0434L53.6634 6.79999C53.6634 6.18665 53.8301 5.69999 54.1634 5.33999C54.5101 4.97999 54.9634 4.79999 55.5234 4.79999C56.2167 4.79999 56.75 5.05999 57.1234 5.57999C57.51 6.09999 57.7034 6.78665 57.7034 7.63999V16H56.0434V7.61999C56.0434 7.16665 55.9434 6.81332 55.7434 6.55999C55.5567 6.30665 55.2767 6.17999 54.9034 6.17999C54.5434 6.17999 54.2567 6.30665 54.0434 6.55999C53.8434 6.79999 53.7434 7.14665 53.7434 7.59999V16H52.3034V7.61999C52.3034 7.15332 52.1967 6.79999 51.9834 6.55999C51.7834 6.30665 51.4967 6.17999 51.1234 6.17999C50.75 6.17999 50.47 6.30665 50.2834 6.55999C50.0967 6.79999 50.0034 7.14665 50.0034 7.59999V16H48.3434Z" fill="white"/>
<path d="M26.3391 19.2L27.9391 12.98H30.5391L27.9391 19.2H26.3391Z" fill="white"/>
<path d="M12.7468 16V14.36H16.6468V6.64002H13.2468V5.00002H18.4468V14.36H22.1468V16H12.7468ZM17.3468 3.02002C16.9068 3.02002 16.5602 2.90669 16.3068 2.68002C16.0535 2.45335 15.9268 2.14669 15.9268 1.76002C15.9268 1.36002 16.0535 1.04669 16.3068 0.820021C16.5602 0.580021 16.9068 0.460022 17.3468 0.460022C17.7868 0.460022 18.1335 0.580021 18.3868 0.820021C18.6402 1.04669 18.7668 1.36002 18.7668 1.76002C18.7668 2.14669 18.6402 2.45335 18.3868 2.68002C18.1335 2.90669 17.7868 3.02002 17.3468 3.02002Z" fill="white"/>
<path d="M0.914795 16V1.40002H2.7148V7.64002H7.39479V1.40002H9.1948V16H7.39479V9.28002H2.7148V16H0.914795Z" fill="white"/>
<path d="M119.845 54.32C117.989 54.32 116.528 53.8507 115.461 52.912C114.395 51.952 113.861 50.6614 113.861 49.04C113.861 47.3974 114.395 46.1067 115.461 45.168C116.528 44.2293 117.968 43.76 119.781 43.76H125.221V42C125.221 40.912 124.891 40.08 124.229 39.504C123.589 38.9067 122.672 38.608 121.477 38.608C120.432 38.608 119.557 38.832 118.853 39.28C118.149 39.7067 117.744 40.2933 117.637 41.04H114.757C114.949 39.5253 115.664 38.32 116.901 37.424C118.139 36.528 119.685 36.08 121.541 36.08C123.568 36.08 125.168 36.6027 126.341 37.648C127.515 38.6933 128.101 40.112 128.101 41.904V54H125.285V50.64H124.805L125.285 50.16C125.285 51.44 124.784 52.4534 123.781 53.2C122.8 53.9467 121.488 54.32 119.845 54.32ZM120.549 52.048C121.915 52.048 123.035 51.7067 123.909 51.024C124.784 50.3414 125.221 49.4667 125.221 48.4V45.904H119.845C118.885 45.904 118.128 46.1707 117.573 46.704C117.019 47.2373 116.741 47.9627 116.741 48.88C116.741 49.8613 117.072 50.64 117.733 51.216C118.416 51.7707 119.355 52.048 120.549 52.048Z" fill="url(#paint0_linear_0_1)"/>
<path d="M103.218 54.32C101.767 54.32 100.604 53.936 99.7297 53.168C98.8551 52.3787 98.4177 51.312 98.4177 49.968L98.9937 50.64H98.4177V54H95.5377V30.64H98.4177V35.76L98.3537 39.76H98.9937L98.4177 40.432C98.4177 39.1093 98.8551 38.0533 99.7297 37.264C100.626 36.4747 101.788 36.08 103.218 36.08C104.988 36.08 106.407 36.6667 107.474 37.84C108.54 39.0133 109.074 40.6133 109.074 42.64V47.792C109.074 49.7973 108.54 51.3867 107.474 52.56C106.407 53.7333 104.988 54.32 103.218 54.32ZM102.258 51.824C103.474 51.824 104.434 51.4613 105.138 50.736C105.842 50.0107 106.194 48.9653 106.194 47.6V42.8C106.194 41.4347 105.842 40.3893 105.138 39.664C104.434 38.9387 103.474 38.576 102.258 38.576C101.084 38.576 100.146 38.9493 99.4417 39.696C98.7591 40.4427 98.4177 41.4773 98.4177 42.8V47.6C98.4177 48.9227 98.7591 49.9573 99.4417 50.704C100.146 51.4507 101.084 51.824 102.258 51.824Z" fill="url(#paint1_linear_0_1)"/>
<path d="M79.1023 59.76L81.6943 52.912L75.1663 36.4H78.3663L82.4623 47.28C82.6116 47.6427 82.7503 48.08 82.8783 48.592C83.0063 49.0827 83.1129 49.4987 83.1983 49.84C83.2836 49.4987 83.3903 49.0827 83.5183 48.592C83.6463 48.08 83.7743 47.6427 83.9023 47.28L87.7423 36.4H90.8463L82.1743 59.76H79.1023Z" fill="url(#paint2_linear_0_1)"/>
<path d="M56.9387 54V51.376H63.1787V39.024H57.7387V36.4H66.0587V51.376H71.9787V54H56.9387ZM64.2987 33.232C63.5947 33.232 63.0401 33.0507 62.6347 32.688C62.2294 32.3253 62.0267 31.8347 62.0267 31.216C62.0267 30.576 62.2294 30.0747 62.6347 29.712C63.0401 29.328 63.5947 29.136 64.2987 29.136C65.0027 29.136 65.5574 29.328 65.9627 29.712C66.3681 30.0747 66.5707 30.576 66.5707 31.216C66.5707 31.8347 66.3681 32.3253 65.9627 32.688C65.5574 33.0507 65.0027 33.232 64.2987 33.232Z" fill="url(#paint3_linear_0_1)"/>
<path d="M38.9672 54L36.1512 36.4H38.7112L40.4712 48.88C40.5352 49.3494 40.5992 49.8614 40.6632 50.416C40.7486 50.9494 40.8126 51.3974 40.8552 51.76C40.8979 51.3974 40.9619 50.9494 41.0472 50.416C41.1539 49.8614 41.2392 49.3494 41.3032 48.88L43.2552 36.4H46.0072L47.9592 48.88C48.0232 49.3494 48.0979 49.8614 48.1832 50.416C48.2899 50.9494 48.3646 51.3974 48.4072 51.76C48.4499 51.3974 48.5139 50.9494 48.5992 50.416C48.7059 49.8614 48.7912 49.3494 48.8552 48.88L50.6792 36.4H53.1112L50.1672 54H46.9992L45.1112 41.84C45.0259 41.2427 44.9299 40.6454 44.8232 40.048C44.7166 39.4507 44.6419 38.9814 44.5992 38.64C44.5566 38.9814 44.4926 39.4507 44.4072 40.048C44.3219 40.6454 44.2259 41.2427 44.1192 41.84L42.1352 54H38.9672Z" fill="url(#paint4_linear_0_1)"/>
<defs>
<linearGradient id="paint0_linear_0_1" x1="120.981" y1="54.32" x2="120.981" y2="36.08" gradientUnits="userSpaceOnUse">
<stop stop-color="#4E54C8"/>
<stop offset="1" stop-color="#8F94FB"/>
</linearGradient>
<linearGradient id="paint1_linear_0_1" x1="102.306" y1="54.32" x2="102.306" y2="30.64" gradientUnits="userSpaceOnUse">
<stop stop-color="#4E54C8"/>
<stop offset="1" stop-color="#8F94FB"/>
</linearGradient>
<linearGradient id="paint2_linear_0_1" x1="83.0063" y1="59.76" x2="83.0063" y2="36.4" gradientUnits="userSpaceOnUse">
<stop stop-color="#4E54C8"/>
<stop offset="1" stop-color="#8F94FB"/>
</linearGradient>
<linearGradient id="paint3_linear_0_1" x1="64.4587" y1="54" x2="64.4587" y2="29.136" gradientUnits="userSpaceOnUse">
<stop stop-color="#4E54C8"/>
<stop offset="1" stop-color="#8F94FB"/>
</linearGradient>
<linearGradient id="paint4_linear_0_1" x1="44.6312" y1="54" x2="44.6312" y2="36.4" gradientUnits="userSpaceOnUse">
<stop stop-color="#4E54C8"/>
<stop offset="1" stop-color="#8F94FB"/>
</linearGradient>
</defs>
</svg>

